<?xml version="1.0" standalone="no"?><!DOCTYPE svg PUBLIC "-//W3C//DTD SVG 1.1//EN" "http://www.w3.org/Graphics/SVG/1.1/DTD/svg11.dtd"><svg t="1549785534277" class="icon" style="" viewBox="0 0 1024 1024" version="1.1" xmlns="http://www.w3.org/2000/svg" p-id="1942" xmlns:xlink="http://www.w3.org/1999/xlink" width="48" height="48"><defs><style type="text/css"></style></defs><path d="M801.917542 351.624164c0-184.854522-130.49758-335.24643-290.902188-335.24643-160.407805 0-290.905385 150.391908-290.905386 335.24643 0 148.26277 83.957067 274.335837 199.953496 318.446705l-10.594537 88.145009a22.375124 22.375124 0 0 0 22.218476 25.044538h79.056214c-3.337567 2.07479-7.090731 4.139989-10.524205 6.032556-17.352789 9.552346-43.573788 23.98956-43.573787 54.826887s26.220998 45.277737 43.573787 54.830083c9.091992 5.003153 20.405832 11.237114 20.405832 15.629659 0 4.389348-11.31384 10.620112-20.405832 15.626462-17.352789 9.552346-43.573788 23.992757-43.573787 54.830083a22.378321 22.378321 0 1 0 44.756642 0c0-4.389348 11.31384-10.620112 20.405831-15.626462 17.352789-9.552346 43.573788-23.992757 43.573788-54.830083s-26.220998-45.280934-43.573788-54.83328c-9.091992-5.003153-20.405832-11.237114-20.405831-15.626462 0-4.386151 11.31384-10.616915 20.405831-15.623265 15.437845-8.500565 37.848135-20.894958 42.614717-45.236178h25.92049a22.375124 22.375124 0 0 0 22.218476-25.044538l-10.594537-88.145009c115.993232-44.110868 199.950298-170.183934 199.950298-318.446705zM565.116543 738.506971h-108.202379l6.745466-56.099253c15.418663 2.921969 31.230545 4.466073 47.355724 4.466073s31.937061-1.544104 47.355724-4.466073l6.745465 56.099253z m9.024858-106.092423a22.307989 22.307989 0 0 0-5.949437 1.771085 210.356217 210.356217 0 0 1-57.179807 7.931516 210.330642 210.330642 0 0 1-57.17661-7.928319 22.330367 22.330367 0 0 0-5.952634-1.771085C342.644064 599.435297 264.863414 486.057132 264.863414 351.627361c0-160.177628 110.42103-290.489788 246.148743-290.489788 135.724517 0 246.145547 130.315357 246.145546 290.489788 0.003197 134.426574-77.78065 247.807936-183.016302 280.787187z" fill="#9E162A" p-id="1943"></path><path d="M511.015354 589.668758c-114.404371 0-207.479005-106.786151-207.479005-238.044594a22.378321 22.378321 0 1 1 44.756642 0c0 106.578352 72.998083 193.287952 162.722363 193.287952a22.378321 22.378321 0 1 1 0 44.756642zM340.121707 290.994899a22.375124 22.375124 0 0 1-21.064394-29.929406c9.203884-25.696706 22.170522-49.174762 38.529075-69.775605a22.378321 22.378321 0 0 1 35.047648 27.835434c-13.308707 16.761362-23.890456 35.949174-31.441541 57.03275a22.400699 22.400699 0 0 1-21.070788 14.836827z" fill="#9E162A" p-id="1944"></path></svg>