<?xml version="1.0" standalone="no"?><!DOCTYPE svg PUBLIC "-//W3C//DTD SVG 1.1//EN" "http://www.w3.org/Graphics/SVG/1.1/DTD/svg11.dtd"><svg t="1549112754223" class="icon" style="" viewBox="0 0 1024 1024" version="1.1" xmlns="http://www.w3.org/2000/svg" p-id="5709" xmlns:xlink="http://www.w3.org/1999/xlink" width="48" height="48"><defs><style type="text/css"></style></defs><path d="M290.165667 291.734959a252.197503 203.769967 90 1 0 407.539935 0 252.197503 203.769967 90 1 0-407.539935 0Z" fill="#FF7F0E" p-id="5710"></path><path d="M261.623835 299.96998a252.197503 193.242242 90 1 0 386.484484 0 252.197503 193.242242 90 1 0-386.484484 0Z" fill="#FF7F0E" p-id="5711"></path><path d="M706.736051 291.734959C706.736051 140.369668 598.230298 17.265469 464.879113 17.265469 331.527929 17.265469 223.022176 140.369668 223.022176 291.734959c0 146.452353 101.580849 266.468419 228.989718 274.048381l-15.861773 44.216445a4.39825 4.39825 0 0 0 1.497277 5.100098 4.678989 4.678989 0 0 0 5.334047 0.18716l32.004285-22.318777 15.253503 21.10224a4.632199 4.632199 0 0 0 4.21109 1.918385 4.538619 4.538619 0 0 0 3.649612-2.854183l6.831324-17.920528 17.265469 19.277435a4.445039 4.445039 0 0 0 3.322082 1.450486 4.491829 4.491829 0 0 0 4.25788-6.129475l-18.294847-48.801855c111.079197-24.658272 195.254208-136.064998 195.254208-269.275812z m-193.803721 298.987392l-6.269846-6.924904c-1.076167-1.169747-2.667024-1.731226-4.21109-1.450486s-2.854183 1.356907-3.368872 2.854183l-6.503794 16.89115-12.91401-17.920528a4.772569 4.772569 0 0 0-3.696401-1.918385 4.35146 4.35146 0 0 0-2.573444 0.842218l-23.956423 16.657201 12.071791-33.595141H464.879113c12.77364 0 25.36012-1.076167 37.665861-3.275292l10.387356 27.839984zM464.879113 548.143552c-123.384938 0-223.74925-115.056337-223.74925-256.408593C241.129863 150.382704 341.494176 35.373156 464.879113 35.373156c123.431728 0 223.79604 115.009548 223.79604 256.361803s-100.364312 256.408593-223.79604 256.408593z" fill="#FF7F0E" p-id="5712"></path><path d="M482.051003 613.181498a4.538619 4.538619 0 0 0-8.42218-3.368872c-0.608269 1.544066-14.832395 38.835608 10.574515 106.353418 24.985801 66.535222 13.147959 244.196432-7.392803 301.935155a4.491829 4.491829 0 0 0 2.713814 5.755156 4.39825 4.39825 0 0 0 5.755156-2.713814c21.476559-60.312167 33.501561-238.722015 7.299223-308.15821-23.956423-63.868199-10.668095-99.428515-10.527725-99.802833z" fill="#FF7F0E" p-id="5713"></path><path d="M309.068782 285.792643a4.491829 4.491829 0 0 1-3.97714-2.433074c-13.662648-25.874809 7.860701-67.42423 8.796499-69.155456a4.585409 4.585409 0 0 1 6.129476-1.918386 4.538619 4.538619 0 0 1 1.871595 6.082686c-0.18716 0.374319-20.213232 39.116347-8.796499 60.826856a4.538619 4.538619 0 0 1-1.871596 6.082685 5.006518 5.006518 0 0 1-2.152335 0.514689zM325.492034 201.991952a4.491829 4.491829 0 0 1-2.152335-0.561479 4.491829 4.491829 0 0 1-1.824806-6.129476l3.649611-6.644164a4.491829 4.491829 0 1 1 7.907492 4.30467l-3.649612 6.690954a4.445039 4.445039 0 0 1-3.93035 2.339495z" fill="#FF7F0E" p-id="5714"></path></svg>