<?xml version="1.0" encoding="utf-8"?>
<!-- Generator: Adobe Illustrator 21.0.0, SVG Export Plug-In . SVG Version: 6.00 Build 0)  -->
<svg version="1.1" id="Layer_1" xmlns="http://www.w3.org/2000/svg" xmlns:xlink="http://www.w3.org/1999/xlink" x="0px" y="0px"
	 viewBox="0 0 288 288" style="enable-background:new 0 0 288 288;" xml:space="preserve">
<style type="text/css">
	.st0{fill-rule:evenodd;clip-rule:evenodd;fill:url(#SVGID_1_);}
	.st1{display:none;fill:url(#SVGID_2_);}
	.st2{fill:#FFFFFF;}
	.st3{clip-path:url(#SVGID_4_);}
	.st4{fill:#00237C;}
	.st5{fill:#CF142B;}
	.st6{clip-path:url(#SVGID_6_);}
	.st7{fill-rule:evenodd;clip-rule:evenodd;fill:#00237C;}
	.st8{fill:#FFCC00;}
</style>
<g>
	
		<radialGradient id="SVGID_1_" cx="290.6849" cy="-2422.1978" r="346.4872" gradientTransform="matrix(-0.9866 0 0 -0.9866 577.6462 -2420.8196)" gradientUnits="userSpaceOnUse">
		<stop  offset="0.3226" style="stop-color:#FAFBFD"/>
		<stop  offset="0.4476" style="stop-color:#F6F8FB"/>
		<stop  offset="0.5709" style="stop-color:#EAEFF5"/>
		<stop  offset="0.6932" style="stop-color:#D6E0EC"/>
		<stop  offset="0.7204" style="stop-color:#D1DCE9"/>
		<stop  offset="1" style="stop-color:#F1F4F9"/>
	</radialGradient>
	<rect class="st0" width="288" height="288"/>
	<g>
		<radialGradient id="SVGID_2_" cx="131.4961" cy="155.2888" r="129.871" gradientUnits="userSpaceOnUse">
			<stop  offset="0.4516" style="stop-color:#000000"/>
			<stop  offset="0.5675" style="stop-color:#484848"/>
			<stop  offset="0.6834" style="stop-color:#898989"/>
			<stop  offset="0.7885" style="stop-color:#BCBCBC"/>
			<stop  offset="0.8796" style="stop-color:#E0E0E0"/>
			<stop  offset="0.9532" style="stop-color:#F7F7F7"/>
			<stop  offset="1" style="stop-color:#FFFFFF"/>
		</radialGradient>
		<circle class="st1" cx="131.5" cy="155.3" r="129.9"/>
		<g>
			<circle class="st2" cx="142.8" cy="142.5" r="88.2"/>
			<g>
				<defs>
					<circle id="SVGID_3_" cx="142.8" cy="142.5" r="82.3"/>
				</defs>
				<clipPath id="SVGID_4_">
					<use xlink:href="#SVGID_3_"  style="overflow:visible;"/>
				</clipPath>
				<g class="st3">
					<g>
						<rect x="17.1" y="56.6" class="st4" width="104.9" height="56.1"/>
						<g>
							<polygon class="st2" points="45.9,56.6 17.1,56.6 17.1,74.3 157.5,167 191.7,152.9 							"/>
						</g>
						<g>
							<polygon class="st5" points="17.1,58.1 17.1,70.2 159.4,164.2 165,155.8 							"/>
						</g>
					</g>
					<g>
						<rect x="164.9" y="56.6" class="st4" width="104.9" height="56.1"/>
						<g>
							<polygon class="st2" points="241,56.6 269.7,56.6 269.7,74.3 129.3,167 95.1,152.9 							"/>
						</g>
						<g>
							<polygon class="st5" points="269.7,58.1 269.7,70.2 127.4,164.2 121.9,155.8 							"/>
						</g>
					</g>
					<g>
						<rect x="164.9" y="169.7" class="st4" width="104.9" height="56.1"/>
						<g>
							<polygon class="st2" points="241,225.8 269.7,225.8 269.7,208.1 129.3,115.4 95.1,129.5 							"/>
						</g>
						<g>
							<polygon class="st5" points="269.7,224.3 269.7,212.2 127.4,118.2 121.9,126.7 							"/>
						</g>
					</g>
					<g>
						<rect x="17.1" y="169.7" class="st4" width="104.9" height="56.1"/>
						<g>
							<polygon class="st2" points="45.9,225.8 17.1,225.8 17.1,208.1 157.5,115.4 191.7,129.5 							"/>
						</g>
						<g>
							<polygon class="st5" points="17.1,224.3 17.1,212.2 159.4,118.2 165,126.7 							"/>
						</g>
					</g>
					<polygon class="st2" points="269.7,112.7 165.1,112.7 165.1,56.6 121.4,56.6 121.4,112.7 17.1,112.7 17.1,168.4 121.4,168.4 
						121.4,225.8 165.1,225.8 165.1,168.4 269.7,168.4 					"/>
					<polygon class="st5" points="269.7,124.1 155.8,124.1 155.8,56.6 130.6,56.6 130.6,124.1 17.1,124.1 17.1,157 130.6,157 
						130.6,225.8 155.8,225.8 155.8,157 269.7,157 					"/>
				</g>
			</g>
			<g>
				<defs>
					<path id="SVGID_5_" d="M60.5,142.4c0,0.1,0,0.1,0,0.2c0,45.5,36.9,82.3,82.3,82.3c45.5,0,82.3-36.9,82.3-82.3
						c0-0.1,0-0.1,0-0.2H60.5z"/>
				</defs>
				<clipPath id="SVGID_6_">
					<use xlink:href="#SVGID_5_"  style="overflow:visible;"/>
				</clipPath>
				<g class="st6">
					<rect x="45.2" y="43.4" class="st7" width="196" height="197.4"/>
					<g>
						<polygon class="st8" points="143.1,69.1 145.7,76.9 153.8,76.9 147.2,81.7 149.7,89.5 143.1,84.7 136.5,89.5 139,81.7 
							132.4,76.9 140.6,76.9 						"/>
						<polygon class="st8" points="143.1,194.7 145.7,202.5 153.8,202.5 147.2,207.3 149.7,215 143.1,210.2 136.5,215 139,207.3 
							132.4,202.5 140.6,202.5 						"/>
						<polygon class="st8" points="206,132.1 208.6,139.9 216.7,139.9 210.1,144.7 212.6,152.5 206,147.7 199.4,152.5 201.9,144.7 
							195.3,139.9 203.5,139.9 						"/>
						<polygon class="st8" points="80.4,131.9 82.9,139.7 91,139.7 84.4,144.5 87,152.2 80.4,147.4 73.7,152.2 76.3,144.5 
							69.7,139.7 77.8,139.7 						"/>
						<polygon class="st8" points="88.7,100.1 91.2,107.9 99.4,107.9 92.8,112.7 95.3,120.4 88.7,115.6 82.1,120.4 84.6,112.7 
							78,107.9 86.2,107.9 						"/>
						<polygon class="st8" points="111.1,77.1 113.6,84.8 121.8,84.8 115.2,89.6 117.7,97.4 111.1,92.6 104.5,97.4 107,89.6 
							100.4,84.8 108.6,84.8 						"/>
						<polygon class="st8" points="196.5,100.1 199,107.9 207.2,107.9 200.6,112.7 203.1,120.4 196.5,115.6 189.9,120.4 
							192.4,112.7 185.8,107.9 194,107.9 						"/>
						<polygon class="st8" points="173.9,77.1 176.4,84.8 184.6,84.8 178,89.6 180.5,97.4 173.9,92.6 167.3,97.4 169.8,89.6 
							163.2,84.8 171.4,84.8 						"/>
						<polygon class="st8" points="88.7,162.9 91.2,170.6 99.4,170.6 92.8,175.5 95.3,183.2 88.7,178.4 82.1,183.2 84.6,175.5 
							78,170.6 86.2,170.6 						"/>
						<polygon class="st8" points="111.1,185.3 113.6,193 121.8,193 115.2,197.8 117.7,205.6 111.1,200.8 104.5,205.6 107,197.8 
							100.4,193 108.6,193 						"/>
						<polygon class="st8" points="196.5,162.9 199,170.6 207.2,170.6 200.6,175.5 203.1,183.2 196.5,178.4 189.9,183.2 
							192.4,175.5 185.8,170.6 194,170.6 						"/>
						<polygon class="st8" points="173.9,185.3 176.4,193 184.6,193 178,197.8 180.5,205.6 173.9,200.8 167.3,205.6 169.8,197.8 
							163.2,193 171.4,193 						"/>
					</g>
				</g>
			</g>
		</g>
	</g>
	<g>
		<path class="st2" d="M112.1,147.7c0,0.9-0.2,1.8-0.6,2.4c-0.4,0.7-0.9,1.2-1.6,1.7c-0.7,0.4-1.5,0.8-2.4,1
			c-0.9,0.2-1.9,0.3-2.9,0.3H94.2v-21h12.2c0.7,0,1.4,0.2,2,0.5c0.6,0.3,1.1,0.7,1.5,1.2c0.4,0.5,0.7,1.1,1,1.7
			c0.2,0.6,0.3,1.3,0.3,2c0,1-0.3,1.9-0.8,2.8c-0.5,0.9-1.3,1.6-2.3,2c1.2,0.4,2.1,1,2.8,1.8C111.7,145.1,112.1,146.3,112.1,147.7z
			 M100,137.1v3.2h3.9c0.4,0,0.8-0.1,1.1-0.3c0.3-0.2,0.5-0.6,0.5-1.3c0-0.6-0.1-1-0.4-1.2c-0.3-0.2-0.6-0.4-1-0.4H100z
			 M106.2,146.6c0-0.5-0.1-0.9-0.4-1.3c-0.3-0.3-0.6-0.5-1.1-0.5H100v3.5h4.5c0.5,0,0.9-0.1,1.2-0.4
			C106.1,147.5,106.2,147.1,106.2,146.6z M114.6,153.1v-21h9.6c1,0,2,0.2,2.8,0.6c0.9,0.4,1.6,1,2.2,1.7c0.6,0.7,1.1,1.5,1.5,2.3
			c0.4,0.9,0.5,1.8,0.5,2.6c0,1.2-0.3,2.4-0.8,3.4c-0.5,1.1-1.3,1.9-2.2,2.6l4.7,7.7h-6.5l-4-6.4h-2.2v6.4H114.6z M120.3,141.7h3.6
			c0.4,0,0.7-0.2,1-0.6c0.3-0.4,0.5-0.9,0.5-1.7c0-0.7-0.2-1.3-0.5-1.7c-0.4-0.4-0.7-0.6-1.1-0.6h-3.5V141.7z"/>
		<path class="st2" d="M149.8,148.1v5h-14.9v-21h14.7v5h-8.9v3h7.6v4.7h-7.6v3.3H149.8z M156.5,132.2l3.8,6.6l3.8-6.6h6.2l-7,10.6
			l6.8,10.3h-6.2l-3.6-6.3l-3.6,6.3h-6.2l6.8-10.3l-7-10.6H156.5z M171.8,153.1v-21h5.8v21H171.8z M197.5,137.2h-6v15.9h-5.8v-15.9
			h-6.1v-5h17.8V137.2z"/>
	</g>
</g>
</svg>
