<?xml version="1.0" standalone="no"?><!DOCTYPE svg PUBLIC "-//W3C//DTD SVG 1.1//EN" "http://www.w3.org/Graphics/SVG/1.1/DTD/svg11.dtd"><svg t="1547630000526" class="icon" style="" viewBox="0 0 1024 1024" version="1.1" xmlns="http://www.w3.org/2000/svg" p-id="1790" xmlns:xlink="http://www.w3.org/1999/xlink" width="48" height="48"><defs><style type="text/css"></style></defs><path d="M512 1024c284.444444 0 512-227.555556 512-512s-227.555556-512-512-512-512 227.555556-512 512 227.555556 512 512 512zM512 96.711111c227.555556 0 415.288889 187.733333 415.288889 415.288889S739.555556 927.288889 512 927.288889 96.711111 739.555556 96.711111 512 284.444444 96.711111 512 96.711111z m193.422222 682.666667c-39.822222-62.577778-108.088889-108.088889-193.422222-108.088889s-153.6 45.511111-193.422222 108.088889l-79.644445-51.2c56.888889-91.022222 159.288889-153.6 273.066667-153.6s216.177778 62.577778 273.066667 153.6l-79.644445 51.2z m62.577778-500.622222c5.688889 17.066667-5.688889 34.133333-22.755556 39.822222-17.066667 5.688889-39.822222 11.377778-56.888888 22.755555 11.377778 11.377778 17.066667 28.444444 17.066666 45.511111 0 34.133333-28.444444 62.577778-62.577778 62.577778s-62.577778-28.444444-62.577777-62.577778v-5.688888c0-45.511111 45.511111-79.644444 79.644444-96.711112 34.133333-17.066667 68.266667-28.444444 68.266667-28.444444 17.066667-5.688889 34.133333 5.688889 39.822222 22.755556z m-512 0c5.688889-17.066667 22.755556-28.444444 39.822222-22.755556 0 0 34.133333 11.377778 68.266667 28.444444s79.644444 51.2 79.644444 96.711112v5.688888c0 34.133333-28.444444 62.577778-62.577777 62.577778-34.133333 0-62.577778-28.444444-62.577778-62.577778 0-17.066667 5.688889-34.133333 17.066666-45.511111-17.066667-11.377778-39.822222-17.066667-56.888888-22.755555-17.066667-5.688889-28.444444-22.755556-22.755556-39.822222z" p-id="1791" fill="#d81e06"></path></svg>